<svg width="70" height="70" viewBox="0 0 70 70" fill="none" xmlns="http://www.w3.org/2000/svg">
<path fill-rule="evenodd" clip-rule="evenodd" d="M13.125 8.75C11.9647 8.75 10.8519 9.21094 10.0314 10.0314C9.21094 10.8519 8.75 11.9647 8.75 13.125V56.875C8.75 58.0353 9.21094 59.1481 10.0314 59.9686C10.8519 60.7891 11.9647 61.25 13.125 61.25H56.875C58.0353 61.25 59.1481 60.7891 59.9686 59.9686C60.7891 59.1481 61.25 58.0353 61.25 56.875V13.125C61.25 11.9647 60.7891 10.8519 59.9686 10.0314C59.1481 9.21094 58.0353 8.75 56.875 8.75H13.125ZM52.5 16.0417C52.5 19.9631 49.9946 22.1054 46.6667 24.3235C44.8335 23.1015 43.2498 21.9027 42.1969 20.4167H48.125C48.5118 20.4167 48.8827 20.263 49.1562 19.9895C49.4297 19.716 49.5833 19.3451 49.5833 18.9583C49.5833 18.5716 49.4297 18.2006 49.1562 17.9271C48.8827 17.6536 48.5118 17.5 48.125 17.5H40.9588C40.8734 17.0186 40.8314 16.5306 40.8333 16.0417H37.9167C37.9167 21.016 40.9456 23.889 44.0242 26.0531C42.8123 26.8669 41.6077 27.7492 40.6146 28.7598C39.0513 30.3479 37.9167 32.3371 37.9167 35C37.9167 37.6629 39.0513 39.6521 40.6146 41.2417C41.6077 42.2508 42.8123 43.1331 44.0242 43.9469C40.9471 46.111 37.9167 48.984 37.9167 53.9583H40.8333C40.8333 50.0369 43.3388 47.8946 46.6667 45.6779C48.4998 46.8985 50.0835 48.0973 51.1365 49.5833H45.2083C44.8216 49.5833 44.4506 49.737 44.1771 50.0105C43.9036 50.284 43.75 50.6549 43.75 51.0417C43.75 51.4284 43.9036 51.7994 44.1771 52.0729C44.4506 52.3464 44.8216 52.5 45.2083 52.5H52.3746C52.4572 52.9569 52.499 53.4431 52.5 53.9583H55.4167C55.4167 48.984 52.3877 46.111 49.3092 43.9469C50.521 43.1331 51.7256 42.2508 52.7188 41.2402C54.2821 39.6521 55.4167 37.6629 55.4167 35C55.4167 32.3371 54.2821 30.3479 52.7188 28.7583C51.7256 27.7492 50.521 26.8669 49.3092 26.0531C52.3863 23.889 55.4167 21.016 55.4167 16.0417H52.5ZM42.875 30.625C43.9017 29.6304 45.2025 28.7583 46.6667 27.806C48.1308 28.7583 49.4331 29.6304 50.4583 30.625H42.875ZM41.02 33.5417C40.8956 33.9928 40.8333 34.4789 40.8333 35C40.8343 35.5211 40.8965 36.0072 41.02 36.4583H52.3133C52.4368 36.0072 52.499 35.5211 52.5 35C52.499 34.4789 52.4368 33.9928 52.3133 33.5417H41.02ZM46.6667 42.194C45.2025 41.2417 43.9017 40.3696 42.875 39.375H50.4583C49.4331 40.3696 48.1308 41.2417 46.6667 42.194ZM18.9583 24.7917C18.9583 24.4049 19.112 24.034 19.3855 23.7605C19.659 23.487 20.0299 23.3333 20.4167 23.3333H30.625C31.0118 23.3333 31.3827 23.487 31.6562 23.7605C31.9297 24.034 32.0833 24.4049 32.0833 24.7917V27.7083C32.0833 28.0951 31.9297 28.466 31.6562 28.7395C31.3827 29.013 31.0118 29.1667 30.625 29.1667H29.1667V35.07L35.3369 45.0596C37.7373 48.946 34.9431 53.9583 30.3742 53.9583H20.6675C16.1 53.9583 13.3029 48.946 15.7048 45.0596L21.875 35.07V29.1667H20.4167C20.0299 29.1667 19.659 29.013 19.3855 28.7395C19.112 28.466 18.9583 28.0951 18.9583 27.7083V24.7917Z" fill="#9747FF"/>
</svg>
